<svg width="123" height="123" xmlns="http://www.w3.org/2000/svg">

 <g>
  <title>Layer 1</title>
  <g>
   <g>
    <path fill="#ffffff" d="m56.573,4.868c0,-0.655 0.132,-1.283 0.37,-1.859c0.249,-0.6 0.61,-1.137 1.056,-1.583c0.88,-0.881 2.098,-1.426 3.441,-1.426c0.658,0 1.287,0.132 1.863,0.371c0.012,0.005 0.023,0.011 0.037,0.017c0.584,0.248 1.107,0.603 1.543,1.039c0.881,0.88 1.426,2.098 1.426,3.442c0,0.03 -0.002,0.06 -0.006,0.089l0,51.62l51.619,0c0.029,-0.003 0.061,-0.006 0.09,-0.006c0.656,0 1.285,0.132 1.861,0.371c0.014,0.005 0.025,0.011 0.037,0.017c0.584,0.248 1.107,0.603 1.543,1.039c0.881,0.88 1.428,2.098 1.428,3.441c0,0.654 -0.133,1.283 -0.371,1.859c-0.248,0.6 -0.609,1.137 -1.057,1.583c-0.445,0.445 -0.98,0.806 -1.58,1.055l0,0.001c-0.576,0.238 -1.205,0.37 -1.861,0.37c-0.029,0 -0.061,-0.002 -0.09,-0.006l-51.619,0.001l0,51.619c0.004,0.029 0.006,0.06 0.006,0.09c0,0.656 -0.133,1.286 -0.371,1.861c-0.006,0.014 -0.012,0.025 -0.018,0.037c-0.248,0.584 -0.602,1.107 -1.037,1.543c-0.883,0.882 -2.1,1.427 -3.443,1.427c-0.654,0 -1.283,-0.132 -1.859,-0.371c-0.6,-0.248 -1.137,-0.609 -1.583,-1.056c-0.445,-0.444 -0.806,-0.98 -1.055,-1.58l-0.001,0c-0.239,-0.575 -0.371,-1.205 -0.371,-1.861c0,-0.03 0.002,-0.061 0.006,-0.09l0,-51.619l-51.619,0c-0.029,0.004 -0.059,0.006 -0.09,0.006c-0.654,0 -1.283,-0.132 -1.859,-0.371c-0.6,-0.248 -1.137,-0.609 -1.583,-1.056c-0.445,-0.445 -0.806,-0.98 -1.055,-1.58l0,0c-0.239,-0.576 -0.371,-1.205 -0.371,-1.862c0,-0.655 0.132,-1.283 0.371,-1.859c0.249,-0.6 0.61,-1.137 1.056,-1.583c0.881,-0.881 2.098,-1.426 3.442,-1.426c0.031,0 0.061,0.002 0.09,0.006l51.62,0l0,-51.62c-0.004,-0.03 -0.006,-0.06 -0.006,-0.09l0,0z"/>
   </g>
  </g>
 </g>
</svg>