<svg width="120" height="123" xmlns="http://www.w3.org/2000/svg">

 <g>
  <title>Layer 1</title>
  <g>
   <g>
    <path fill="#ffffff" d="m48.319,0c13.343,0 25.421,5.408 34.165,14.152c8.744,8.744 14.152,20.823 14.152,34.166c0,12.809 -4.984,24.451 -13.117,33.098c0.148,0.109 0.291,0.23 0.426,0.364l34.785,34.737c1.457,1.449 1.465,3.807 0.014,5.265c-1.449,1.458 -3.807,1.464 -5.264,0.015l-34.785,-34.737c-0.221,-0.22 -0.408,-0.46 -0.563,-0.715c-8.213,6.447 -18.564,10.292 -29.814,10.292c-13.343,0 -25.423,-5.408 -34.167,-14.152c-8.743,-8.744 -14.151,-20.824 -14.151,-34.167s5.408,-25.422 14.152,-34.166c8.744,-8.743 20.824,-14.152 34.167,-14.152l0,0zm28.763,19.555c-7.361,-7.361 -17.53,-11.914 -28.763,-11.914c-11.233,0 -21.403,4.553 -28.764,11.914c-7.361,7.361 -11.914,17.53 -11.914,28.763c0,11.233 4.553,21.403 11.914,28.764c7.36,7.361 17.53,11.914 28.764,11.914c11.233,0 21.402,-4.553 28.763,-11.914c7.361,-7.36 11.914,-17.53 11.914,-28.764c0,-11.233 -4.553,-21.402 -11.914,-28.763l0,0z"/>
   </g>
  </g>
 </g>
</svg>